<svg xmlns="http://www.w3.org/2000/svg" viewBox="0 0 128 128">
  <defs>
    <linearGradient id="grad1" x1="0%" y1="0%" x2="100%" y2="100%">
      <stop offset="0%" style="stop-color:#1a73e8;stop-opacity:1" />
      <stop offset="100%" style="stop-color:#0066cc;stop-opacity:1" />
    </linearGradient>
  </defs>
  
  <!-- 背景圆形 -->
  <circle cx="64" cy="64" r="58" fill="url(#grad1)" stroke="#fff" stroke-width="2"/>
  
  <!-- 键盘图标 -->
  <rect x="24" y="44" width="80" height="48" rx="6" fill="#fff" opacity="0.9"/>
  <rect x="28" y="48" width="72" height="8" rx="2" fill="#1a73e8"/>
  
  <!-- 按键 -->
  <rect x="30" y="60" width="8" height="8" rx="1" fill="#1a73e8"/>
  <rect x="42" y="60" width="8" height="8" rx="1" fill="#1a73e8"/>
  <rect x="54" y="60" width="8" height="8" rx="1" fill="#1a73e8"/>
  <rect x="66" y="60" width="8" height="8" rx="1" fill="#1a73e8"/>
  <rect x="78" y="60" width="8" height="8" rx="1" fill="#1a73e8"/>
  <rect x="90" y="60" width="8" height="8" rx="1" fill="#1a73e8"/>
  
  <rect x="30" y="72" width="8" height="8" rx="1" fill="#1a73e8"/>
  <rect x="42" y="72" width="8" height="8" rx="1" fill="#1a73e8"/>
  <rect x="54" y="72" width="20" height="8" rx="1" fill="#1a73e8"/>
  <rect x="78" y="72" width="8" height="8" rx="1" fill="#1a73e8"/>
  <rect x="90" y="72" width="8" height="8" rx="1" fill="#1a73e8"/>
  
  <!-- Vim风格的指示 -->
  <text x="64" y="104" font-family="Arial, sans-serif" font-size="12" font-weight="bold" text-anchor="middle" fill="#fff">VIM</text>
</svg> 